<svg width="90" height="55" viewBox="0 0 90 55" fill="none" xmlns="http://www.w3.org/2000/svg">
<path d="M61.406 42.6294L22.307 42.5693C18.6545 42.5365 15.1607 41.093 12.5752 38.5487C11.3082 37.3154 10.3075 35.8418 9.6334 34.2169C8.9593 32.5919 8.62577 30.8492 8.6529 29.0938C8.76839 21.8693 14.7543 16.1233 22.2895 16.0137H61.406V16.1082C68.3311 16.8861 73.6088 22.5011 73.6088 29.2958V39.7091C73.5962 40.4752 73.2782 41.2055 72.7235 41.7421C72.1689 42.2786 71.4222 42.5781 70.6453 42.5757H61.406V42.6294ZM10.7884 29.1196C10.7639 30.5954 11.0431 32.0609 11.609 33.4275C12.1749 34.794 13.0158 36.0332 14.081 37.0703C16.2717 39.2246 19.2308 40.4471 22.3244 40.4763L59.2705 40.5278V40.4698H70.6453C70.8601 40.4751 71.0683 40.397 71.2252 40.2523C71.3822 40.1076 71.4752 39.9079 71.4842 39.6962V29.2893C71.4842 23.294 66.5661 18.3882 60.2903 18.1153L59.9809 18.1024H22.3091C15.9506 18.2012 10.8952 23.0361 10.7884 29.1196Z" fill="#E23226"/>
<path d="M73.6897 0H14.7915V0.0171909C10.8084 0.189965 7.0466 1.87246 4.29078 4.71379C1.53495 7.55511 -0.00216445 11.3359 2.28758e-06 15.2676V28.2618C0.00287163 28.8631 0.246528 29.439 0.677918 29.864C1.10931 30.289 1.6935 30.5287 2.30328 30.531H14.7915V30.604L73.6897 30.531C77.7952 30.531 81.7327 28.9226 84.6357 26.0598C87.5388 23.197 89.1698 19.3141 89.1698 15.2655C89.1698 11.2168 87.5388 7.33399 84.6357 4.47116C81.7327 1.60832 77.7952 0 73.6897 0V0Z" fill="#E23226"/>
<path d="M26.105 38.1576C25.9982 44.9136 31.6333 50.4727 38.6913 50.5759L76.7227 50.6339V50.5759H87.034C87.53 50.5811 88.008 50.393 88.3642 50.0526C88.7204 49.7122 88.926 49.247 88.9363 48.7579V38.3446C88.9363 31.8013 83.554 26.4184 76.7227 26.1283V26.1133H38.6913C31.7837 26.2164 26.2096 31.5477 26.105 38.1576Z" fill="white"/>
<path d="M14.8921 19.3249C12.7 19.3249 11.1332 17.6617 11.1332 15.3022C11.1332 12.9428 12.6804 11.2882 14.8921 11.2882C15.6626 11.2793 16.4134 11.5281 17.0221 11.994C17.6307 12.46 18.0613 13.1156 18.2435 13.8539L20.9935 13.538C20.5294 10.8047 17.9581 8.81055 14.818 8.81055C10.9959 8.81055 8.22852 11.5503 8.22852 15.3022C8.22852 19.0541 11.0134 21.7724 14.842 21.7724C18.0082 21.7724 20.5838 19.8385 21.0022 17.1868L18.2435 16.8258C18.0364 17.5451 17.5972 18.1781 16.9925 18.6291C16.3877 19.0801 15.6503 19.3244 14.8921 19.3249Z" fill="white"/>
<path d="M27.0795 12.4056C26.5474 12.3887 26.0191 12.4989 25.5395 12.7268C25.06 12.9546 24.6433 13.2934 24.3251 13.7142V8.81055H21.7451V21.3878H24.3426V16.5228C24.3335 16.2831 24.3725 16.0439 24.4572 15.819C24.5418 15.5942 24.6706 15.3879 24.8362 15.2121C25.0017 15.0363 25.2007 14.8944 25.4218 14.7945C25.643 14.6945 25.8819 14.6385 26.125 14.6297H26.1991C27.2407 14.6297 27.8661 15.3689 27.8661 16.4175V21.3878H30.4636V15.9018C30.4592 13.8625 29.1256 12.4056 27.0795 12.4056Z" fill="white"/>
<path d="M38.531 12.7334V13.9411C38.1946 13.4616 37.7442 13.0706 37.2193 12.8024C36.6943 12.5342 36.1107 12.3969 35.5195 12.4025C33.0157 12.4025 31.2725 14.3365 31.2725 17.0698C31.2725 19.8032 33.0157 21.7393 35.5195 21.7393C36.1101 21.7475 36.6938 21.6129 37.2195 21.3473C37.7452 21.0817 38.197 20.6932 38.5353 20.2158V21.4148H41.1502V12.7334H38.531ZM36.1906 19.4916C34.8374 19.4916 33.8699 18.458 33.8699 17.0548C33.8699 15.6516 34.8374 14.6115 36.1906 14.6115C37.5438 14.6115 38.5113 15.643 38.5113 17.0462C38.5113 18.4494 37.5395 19.4916 36.1906 19.4916Z" fill="white"/>
<path d="M72.2238 12.7335V13.9411C71.887 13.461 71.436 13.0697 70.9102 12.8015C70.3844 12.5332 69.7999 12.3962 69.208 12.4026C66.7042 12.4026 64.9609 14.3365 64.9609 17.0699C64.9609 19.8032 66.7042 21.7393 69.208 21.7393C69.7986 21.7475 70.3822 21.6129 70.908 21.3473C71.4337 21.0818 71.8854 20.6933 72.2238 20.2158V21.4149H74.8234V12.7335H72.2238ZM69.8835 19.4916C68.5324 19.4916 67.5627 18.458 67.5627 17.0548C67.5627 15.6516 68.5324 14.6116 69.8835 14.6116C71.2345 14.6116 72.202 15.643 72.202 17.0462C72.202 18.4494 71.2323 19.4916 69.8835 19.4916Z" fill="white"/>
<path d="M43.2832 18.3425C43.2832 20.1712 43.974 21.6088 45.7412 21.6088C46.2697 21.6177 46.7959 21.5378 47.2971 21.3724L47.977 19.3847C47.6752 19.4681 47.3641 19.5143 47.0509 19.5223C46.7519 19.5357 46.4598 19.4317 46.2384 19.2332C46.017 19.0346 45.8845 18.7576 45.8698 18.4629C45.8655 18.4121 45.8655 18.3611 45.8698 18.3103V14.6572H47.8811V12.6996H45.8589V10.5293H43.7125L43.3878 12.6996H41.7383V14.6336H43.2636V18.5617L43.2832 18.3425Z" fill="white"/>
<path d="M79.1009 21.3824C79.3868 21.3702 79.6628 21.2756 79.8946 21.1102C80.1265 20.9448 80.304 20.7159 80.4053 20.452C80.5065 20.1881 80.527 19.9006 80.4642 19.6253C80.4013 19.35 80.258 19.0989 80.0518 18.9032C79.8457 18.7075 79.5858 18.5757 79.3045 18.5242C79.0231 18.4727 78.7326 18.5038 78.469 18.6135C78.2054 18.7233 77.9802 18.9069 77.8214 19.1416C77.6626 19.3764 77.5771 19.6519 77.5755 19.9341C77.5673 20.3082 77.7101 20.6702 77.9724 20.9405C78.2347 21.2109 78.5952 21.3675 78.9745 21.376H79.1009V21.3824Z" fill="white"/>
<path d="M62.9192 11.5411C63.2058 11.5293 63.4825 11.4348 63.7151 11.2694C63.9476 11.1039 64.1258 10.8747 64.2275 10.6103C64.3291 10.3458 64.3498 10.0578 64.287 9.78184C64.2241 9.50592 64.0805 9.25426 63.8739 9.05811C63.6673 8.86196 63.4069 8.72994 63.1249 8.67844C62.8429 8.62694 62.5518 8.65823 62.2877 8.76842C62.0235 8.87861 61.7981 9.06285 61.6392 9.29829C61.4803 9.53372 61.395 9.80998 61.3939 10.0928C61.3857 10.4669 61.5285 10.8289 61.7908 11.0992C62.0531 11.3696 62.4135 11.5262 62.7929 11.5347H62.9149L62.9192 11.5411Z" fill="white"/>
<path d="M77.6948 9.46024L77.6621 12.2817L78.3965 17.1403H79.6625L80.3816 12.2817L80.314 9.46024V9.03906H77.6948V9.43875V9.46024Z" fill="white"/>
<path d="M61.5655 12.6777V13.9864V21.9866C61.5865 22.288 61.4854 22.5853 61.2844 22.8133C61.0834 23.0413 60.799 23.1814 60.4934 23.2028C60.4419 23.2071 60.3902 23.2071 60.3387 23.2028C59.9777 23.2116 59.6171 23.1726 59.2666 23.0868V25.0981C59.8895 25.2813 60.5364 25.3725 61.1863 25.3689C62.9536 25.3689 64.152 24.1526 64.152 22.3261V12.6777H61.5655Z" fill="white"/>
<path d="M56.3225 9.28125H52.0973L47.957 21.3148H51.0186L51.6963 19.3229H56.7213L57.3946 21.3191H60.4562L56.3225 9.28125ZM52.2738 17.2857L54.211 11.6987L56.1721 17.2857H52.2738Z" fill="white"/>
<path d="M44.7382 31.9238V41.1381C44.7382 42.5478 44.3482 43.6344 43.5681 44.3979C42.788 45.1615 41.7086 45.5433 40.33 45.5433C38.8322 45.5433 37.6454 45.1271 36.7694 44.2948C35.8934 43.4625 35.4576 42.2634 35.4619 40.6976H38.7306C38.7306 41.9568 39.2136 42.5865 40.1796 42.5865C41.0178 42.5865 41.437 42.1037 41.437 41.1381V31.9238H44.7382Z" fill="#177FF7"/>
<path d="M68.523 35.2898C69.2466 35.7524 69.8229 36.4072 70.1856 37.1787C70.5874 38.0945 70.7947 39.0818 70.7947 40.0796C70.7947 41.0775 70.5874 42.0648 70.1856 42.9806C69.8243 43.7553 69.2478 44.4132 68.523 44.878C67.8053 45.3212 66.9726 45.5496 66.126 45.5356C65.3782 45.5553 64.6402 45.3637 63.9992 44.9833C63.4141 44.6297 62.9566 44.1035 62.6918 43.4791V45.4131H59.4014V31.293H62.7092V36.6909C62.9741 36.0666 63.4315 35.5403 64.0166 35.1867C64.6571 34.8051 65.3954 34.6134 66.1434 34.6344C66.984 34.6231 67.81 34.8506 68.523 35.2898ZM63.3586 38.1886C62.9119 38.6528 62.6896 39.2867 62.6896 40.0861C62.6539 40.7777 62.894 41.4556 63.3586 41.9749C63.8111 42.423 64.4249 42.6765 65.0662 42.6801C65.7075 42.6837 66.3242 42.4372 66.7819 41.9943C67.2177 41.5373 67.4356 40.9012 67.4356 40.0861C67.4356 39.271 67.2177 38.6356 66.7819 38.1801C66.3257 37.7366 65.7108 37.488 65.0702 37.488C64.4296 37.488 63.8148 37.7366 63.3586 38.1801V38.1886Z" fill="#177FF7"/>
<path d="M79.7209 35.6428C80.5427 36.3218 81.0889 37.27 81.2594 38.3138H78.1651C78.0926 37.9124 77.876 37.55 77.5549 37.2931C77.2137 37.0375 76.7934 36.9062 76.3652 36.9213C76.0623 36.8999 75.7614 36.9844 75.5153 37.1599C75.4173 37.2431 75.34 37.3474 75.2893 37.4647C75.2387 37.5821 75.2161 37.7094 75.2233 37.8368C75.2242 37.9994 75.2756 38.158 75.3707 38.2909C75.4658 38.4239 75.5999 38.5249 75.755 38.5803C76.2941 38.802 76.8549 38.9683 77.4286 39.0767C78.1175 39.2277 78.7958 39.4222 79.4594 39.659C79.9959 39.855 80.4723 40.1835 80.8432 40.6131C81.2509 41.1211 81.4569 41.7582 81.4228 42.4052C81.4324 42.9848 81.2562 43.5526 80.9194 44.0276C80.5505 44.5234 80.0476 44.9069 79.4682 45.1343C78.7559 45.4159 77.9931 45.5519 77.2259 45.534C75.7732 45.534 74.6059 45.2159 73.7241 44.5799C73.2844 44.2551 72.9155 43.8462 72.6395 43.3777C72.3636 42.9092 72.1863 42.3906 72.1182 41.853H75.3105C75.3247 42.0598 75.3849 42.2611 75.487 42.4423C75.5891 42.6236 75.7305 42.7804 75.901 42.9016C76.2922 43.1587 76.7563 43.2859 77.2259 43.2648C77.5319 43.2862 77.8349 43.1943 78.0757 43.0069C78.1718 42.9222 78.2476 42.8176 78.2977 42.7005C78.3478 42.5835 78.371 42.457 78.3656 42.33C78.3723 42.1596 78.3246 41.9914 78.2292 41.8491C78.1338 41.7069 77.9955 41.5977 77.8339 41.5371C77.2741 41.3167 76.6949 41.1476 76.1037 41.0321C75.4334 40.9017 74.7736 40.7236 74.1294 40.4992C73.6084 40.3107 73.1443 39.995 72.7806 39.5816C72.4058 39.1519 72.2206 38.5738 72.2206 37.8368C72.208 37.3922 72.3012 36.9509 72.4926 36.5483C72.6841 36.1457 72.9685 35.7929 73.3232 35.5181C74.0583 34.9279 75.0962 34.6328 76.4371 34.6328C77.8084 34.6328 78.9031 34.9695 79.7209 35.6428Z" fill="#177FF7"/>
<path d="M61.404 54.9855C61.2184 55.0095 61.0301 55.0044 60.8461 54.9705C60.6228 54.9301 60.41 54.846 60.2202 54.7231C60.0304 54.6002 59.8676 54.441 59.7413 54.2549L55.6534 48.208C55.4053 47.8279 55.319 47.3667 55.4132 46.9243C55.5074 46.4819 55.7745 46.0939 56.1567 45.8443C56.3464 45.7177 56.5595 45.6292 56.7838 45.5839C57.0081 45.5385 57.2393 45.5372 57.4642 45.58C57.6872 45.6204 57.8997 45.7045 58.0891 45.8274C58.2785 45.9503 58.441 46.1095 58.5668 46.2955L62.6547 52.3424C62.8128 52.5877 62.9057 52.8683 62.9248 53.1584C62.944 53.4484 62.8889 53.7385 62.7645 54.002C62.6402 54.2655 62.4505 54.4939 62.2132 54.6661C61.9758 54.8384 61.6982 54.949 61.4061 54.9877L61.404 54.9855Z" fill="#177FF7"/>
<path d="M61.404 54.9855C61.2184 55.0095 61.0301 55.0044 60.8461 54.9705C60.6228 54.9301 60.41 54.846 60.2202 54.7231C60.0304 54.6002 59.8676 54.441 59.7413 54.2549L55.6534 48.208C55.4053 47.8279 55.319 47.3667 55.4132 46.9243C55.5074 46.4819 55.7745 46.0939 56.1567 45.8443C56.3464 45.7177 56.5595 45.6292 56.7838 45.5839C57.0081 45.5385 57.2393 45.5372 57.4642 45.58C57.6872 45.6204 57.8997 45.7045 58.0891 45.8274C58.2785 45.9503 58.441 46.1095 58.5668 46.2955L62.6547 52.3424C62.8128 52.5877 62.9057 52.8683 62.9248 53.1584C62.944 53.4484 62.8889 53.7385 62.7645 54.002C62.6402 54.2655 62.4505 54.4939 62.2132 54.6661C61.9758 54.8384 61.6982 54.949 61.4061 54.9877L61.404 54.9855Z" fill="#177FF7"/>
<path d="M55.7709 46.7149C55.5633 46.7423 55.3525 46.6996 55.1728 46.5937C54.993 46.4878 54.855 46.3249 54.7812 46.1317C54.7073 45.9385 54.7021 45.7263 54.7663 45.5298C54.8304 45.3332 54.9603 45.1639 55.1346 45.0495L55.8079 44.6069C56.0122 44.4724 56.2623 44.4234 56.5032 44.4707C56.7441 44.5181 56.9561 44.6579 57.0925 44.8593C57.2289 45.0608 57.2785 45.3075 57.2305 45.545C57.1825 45.7826 57.0407 45.9916 56.8364 46.1261L56.6643 45.8725L56.8364 46.1261L56.1609 46.5709C56.0441 46.6484 55.9105 46.6977 55.7709 46.7149Z" fill="#177FF7"/>
<path d="M52.7093 37.6051C52.4381 37.5519 52.1599 37.5424 51.8856 37.5771C51.2593 37.6579 50.6866 37.9681 50.2814 38.446C49.8761 38.9239 49.668 39.5346 49.6982 40.1568C49.7284 40.779 49.9948 41.3673 50.4445 41.8048C50.8942 42.2424 51.4943 42.4971 52.1256 42.5185C52.757 42.5399 53.3734 42.3264 53.8525 41.9204C54.3316 41.5144 54.6384 40.9456 54.7119 40.3268C54.7854 39.7081 54.6202 39.0848 54.2493 38.5805C53.8783 38.0763 53.3286 37.7281 52.7093 37.6051Z" fill="#177FF7"/>
<path d="M57.6121 36.4683C57.0205 35.5939 56.2195 34.8767 55.2798 34.3804C54.3401 33.8841 53.2909 33.624 52.2249 33.623C51.1589 33.6221 50.1092 33.8804 49.1686 34.375C48.2281 34.8696 47.4257 35.5854 46.8326 36.4588C46.2394 37.3322 45.8739 38.3364 45.7682 39.3824C45.6626 40.4284 45.8202 41.4839 46.227 42.4556C46.6338 43.4272 47.2772 44.2849 48.1004 44.9527C48.9236 45.6206 49.9011 46.0779 50.9463 46.2843C51.648 46.4224 52.3679 46.4464 53.0774 46.3552C54.1678 46.2105 55.2029 45.7947 56.0854 45.1468C56.968 44.499 57.6689 43.6405 58.1224 42.652C58.5759 41.6635 58.7669 40.5775 58.6777 39.4962C58.5884 38.4148 58.2217 37.3736 57.6121 36.4705V36.4683ZM56.7579 40.91C56.5686 41.8428 56.089 42.6941 55.386 43.3454C54.6829 43.9967 53.7914 44.4156 52.8355 44.5437C52.3277 44.6094 51.8123 44.592 51.3102 44.4922C50.4121 44.3152 49.5873 43.8796 48.9402 43.2404C48.2931 42.6012 47.8528 41.7872 47.6749 40.9012C47.4971 40.0152 47.5896 39.0971 47.9409 38.263C48.2922 37.4289 48.8864 36.7162 49.6484 36.2152C50.4104 35.7141 51.306 35.4471 52.2219 35.448C53.1377 35.4489 54.0328 35.7176 54.7938 36.2202C55.5548 36.7227 56.1476 37.4365 56.4972 38.2713C56.8468 39.1061 56.9375 40.0244 56.7579 40.91Z" fill="#177FF7"/>
<path d="M77.7927 25.1571V25.0625H38.6762C31.1453 25.1721 25.1551 30.9181 25.0396 38.1426C25.0129 39.898 25.3467 41.6405 26.0208 43.2654C26.6948 44.8903 27.6953 46.3639 28.9619 47.5976C31.5467 50.1428 35.041 51.5864 38.6936 51.6181L56.3942 51.6525L54.9735 49.5509L38.7111 49.5186C35.6178 49.4908 32.6589 48.268 30.4698 46.1127C29.404 45.076 28.5625 43.8369 27.9961 42.4703C27.4298 41.1037 27.1505 39.638 27.1751 38.1619C27.2709 32.0807 32.3395 27.2436 38.6958 27.1512H76.3698L76.677 27.1641C82.9549 27.4305 87.8709 32.3364 87.8709 38.3381V48.7472C87.8613 48.9581 87.7683 49.1569 87.6119 49.3011C87.4556 49.4453 87.2482 49.5233 87.0341 49.5186H75.6594V49.5767L62.3671 49.5573L63.7878 51.6589L77.7818 51.6804V51.6181H87.0298C87.8062 51.6216 88.5527 51.3234 89.1078 50.7881C89.6628 50.2528 89.9818 49.5234 89.9955 48.7579V38.3446C89.9955 31.5499 84.7134 25.9349 77.7927 25.1571Z" fill="#E23226"/>
</svg>
