<svg
  width="50"
  height="50"
  viewBox="0 0 100 100"
  fill="none"
  xmlns="http://www.w3.org/2000/svg"
>
  <circle cx="50" cy="50" r="50" fill="#F3F3F3" />
  <path
    d="M49.7913 27.082C43.4732 27.082 38.333 32.2222 38.333 38.5404C38.333 44.8585 43.4732 49.9987 49.7913 49.9987C56.1095 49.9987 61.2497 44.8585 61.2497 38.5404C61.2497 32.2222 56.1095 27.082 49.7913 27.082Z"
    fill="#A0A4A8"
  />
  <path
    d="M64.5665 59.311C61.3153 55.9919 57.0054 54.1641 52.4306 54.1641H47.1528C42.578 54.1641 38.268 55.9919 35.0169 59.311C31.7817 62.6139 30 66.9736 30 71.5874C30 72.3201 30.5908 72.9141 31.3194 72.9141H68.2639C68.9926 72.9141 69.5833 72.3201 69.5833 71.5874C69.5833 66.9736 67.8016 62.6139 64.5665 59.311Z"
    fill="#A0A4A8"
  />
</svg>
